<svg width="1920" height="890" viewBox="0 0 1920 890" fill="none" xmlns="http://www.w3.org/2000/svg">
<g clip-path="url(#clip0_10_74)">
<rect width="1920" height="890" fill="#F9F9F9"/>
<g clip-path="url(#clip1_10_74)">
<path d="M0 0H186C221.346 0 250 28.6538 250 64V890H0V0Z" fill="#005F40"/>
<ellipse cx="320.112" cy="503.5" rx="177.151" ry="689.62" transform="rotate(-22.7312 320.112 503.5)" fill="#005F40"/>
<ellipse cx="320.112" cy="503.5" rx="177.151" ry="689.62" transform="rotate(-22.7312 320.112 503.5)" fill="black" fill-opacity="0.1"/>
<ellipse cx="88.8656" cy="503.5" rx="177.151" ry="689.62" transform="rotate(-22.7312 88.8656 503.5)" fill="#005F40"/>
<ellipse cx="88.8656" cy="503.5" rx="177.151" ry="689.62" transform="rotate(-22.7312 88.8656 503.5)" fill="black" fill-opacity="0.05"/>
<ellipse cx="-110.134" cy="503.5" rx="177.151" ry="689.62" transform="rotate(-22.7312 -110.134 503.5)" fill="#005F40"/>
<g style="mix-blend-mode:color" filter="url(#filter0_f_10_74)">
<circle cx="543.5" cy="838.5" r="433.5" fill="#091E18"/>
</g>
<g style="mix-blend-mode:color" filter="url(#filter1_f_10_74)">
<circle cx="-159.5" cy="-127.5" r="433.5" fill="#091E18"/>
</g>
</g>
<path d="M0 821.254C51.1962 803.646 158.515 793.413 250 821.254V890H0V821.254Z" fill="#F2CC51"/>
<path d="M19.656 75V52.6H30.6C33.416 52.6 35.528 53.1333 36.936 54.2C38.3653 55.2667 39.08 56.6747 39.08 58.424C39.08 59.5973 38.792 60.6213 38.216 61.496C37.64 62.3493 36.8507 63.0107 35.848 63.48C34.8453 63.9493 33.6933 64.184 32.392 64.184L33 62.872C34.408 62.872 35.656 63.1067 36.744 63.576C37.832 64.024 38.6747 64.696 39.272 65.592C39.8907 66.488 40.2 67.5867 40.2 68.888C40.2 70.808 39.4427 72.312 37.928 73.4C36.4133 74.4667 34.184 75 31.24 75H19.656ZM24.808 71.096H30.856C32.2 71.096 33.2133 70.8827 33.896 70.456C34.6 70.008 34.952 69.304 34.952 68.344C34.952 67.4053 34.6 66.712 33.896 66.264C33.2133 65.7947 32.2 65.56 30.856 65.56H24.424V61.784H29.96C31.2187 61.784 32.1787 61.5707 32.84 61.144C33.5227 60.696 33.864 60.024 33.864 59.128C33.864 58.2533 33.5227 57.6027 32.84 57.176C32.1787 56.728 31.2187 56.504 29.96 56.504H24.808V71.096ZM54.3328 75V71.64L54.0128 70.904V64.888C54.0128 63.8213 53.6821 62.9893 53.0208 62.392C52.3808 61.7947 51.3888 61.496 50.0448 61.496C49.1274 61.496 48.2208 61.6453 47.3248 61.944C46.4501 62.2213 45.7034 62.6053 45.0848 63.096L43.2928 59.608C44.2314 58.9467 45.3621 58.4347 46.6848 58.072C48.0074 57.7093 49.3514 57.528 50.7168 57.528C53.3408 57.528 55.3781 58.1467 56.8288 59.384C58.2794 60.6213 59.0048 62.552 59.0048 65.176V75H54.3328ZM49.0848 75.256C47.7408 75.256 46.5888 75.032 45.6288 74.584C44.6688 74.1147 43.9328 73.4853 43.4208 72.696C42.9088 71.9067 42.6528 71.0213 42.6528 70.04C42.6528 69.016 42.8981 68.12 43.3888 67.352C43.9008 66.584 44.7008 65.9867 45.7888 65.56C46.8768 65.112 48.2954 64.888 50.0448 64.888H54.6208V67.8H50.5888C49.4154 67.8 48.6048 67.992 48.1568 68.376C47.7301 68.76 47.5168 69.24 47.5168 69.816C47.5168 70.456 47.7621 70.968 48.2528 71.352C48.7648 71.7147 49.4581 71.896 50.3328 71.896C51.1648 71.896 51.9114 71.704 52.5728 71.32C53.2341 70.9147 53.7141 70.328 54.0128 69.56L54.7808 71.864C54.4181 72.9733 53.7568 73.816 52.7968 74.392C51.8368 74.968 50.5994 75.256 49.0848 75.256ZM73.9868 57.528C75.3521 57.528 76.5681 57.8053 77.6348 58.36C78.7228 58.8933 79.5761 59.7253 80.1948 60.856C80.8134 61.9653 81.1228 63.3947 81.1228 65.144V75H76.1308V65.912C76.1308 64.5253 75.8214 63.5013 75.2028 62.84C74.6054 62.1787 73.7521 61.848 72.6428 61.848C71.8534 61.848 71.1388 62.0187 70.4988 62.36C69.8801 62.68 69.3894 63.1813 69.0268 63.864C68.6854 64.5467 68.5148 65.4213 68.5148 66.488V75H63.5228V57.784H68.2908V62.552L67.3948 61.112C68.0134 59.96 68.8988 59.0747 70.0508 58.456C71.2028 57.8373 72.5148 57.528 73.9868 57.528ZM94.0928 75.256C92.2368 75.256 90.5834 74.8827 89.1328 74.136C87.6821 73.368 86.5408 72.312 85.7088 70.968C84.8981 69.624 84.4928 68.0987 84.4928 66.392C84.4928 64.664 84.8981 63.1387 85.7088 61.816C86.5408 60.472 87.6821 59.4267 89.1328 58.68C90.5834 57.912 92.2368 57.528 94.0928 57.528C95.9061 57.528 97.4848 57.912 98.8288 58.68C100.173 59.4267 101.165 60.504 101.805 61.912L97.9328 63.992C97.4848 63.1813 96.9194 62.584 96.2368 62.2C95.5754 61.816 94.8501 61.624 94.0608 61.624C93.2074 61.624 92.4394 61.816 91.7568 62.2C91.0741 62.584 90.5301 63.128 90.1248 63.832C89.7408 64.536 89.5488 65.3893 89.5488 66.392C89.5488 67.3947 89.7408 68.248 90.1248 68.952C90.5301 69.656 91.0741 70.2 91.7568 70.584C92.4394 70.968 93.2074 71.16 94.0608 71.16C94.8501 71.16 95.5754 70.9787 96.2368 70.616C96.9194 70.232 97.4848 69.624 97.9328 68.792L101.805 70.904C101.165 72.2907 100.173 73.368 98.8288 74.136C97.4848 74.8827 95.9061 75.256 94.0928 75.256ZM112.652 75.256C110.818 75.256 109.186 74.872 107.756 74.104C106.348 73.336 105.228 72.2907 104.396 70.968C103.586 69.624 103.18 68.0987 103.18 66.392C103.18 64.664 103.586 63.1387 104.396 61.816C105.228 60.472 106.348 59.4267 107.756 58.68C109.186 57.912 110.818 57.528 112.652 57.528C114.466 57.528 116.087 57.912 117.516 58.68C118.946 59.4267 120.066 60.4613 120.876 61.784C121.687 63.1067 122.092 64.6427 122.092 66.392C122.092 68.0987 121.687 69.624 120.876 70.968C120.066 72.2907 118.946 73.336 117.516 74.104C116.087 74.872 114.466 75.256 112.652 75.256ZM112.652 71.16C113.484 71.16 114.231 70.968 114.892 70.584C115.554 70.2 116.076 69.656 116.46 68.952C116.844 68.2267 117.036 67.3733 117.036 66.392C117.036 65.3893 116.844 64.536 116.46 63.832C116.076 63.128 115.554 62.584 114.892 62.2C114.231 61.816 113.484 61.624 112.652 61.624C111.82 61.624 111.074 61.816 110.412 62.2C109.751 62.584 109.218 63.128 108.812 63.832C108.428 64.536 108.236 65.3893 108.236 66.392C108.236 67.3733 108.428 68.2267 108.812 68.952C109.218 69.656 109.751 70.2 110.412 70.584C111.074 70.968 111.82 71.16 112.652 71.16ZM134.844 75V52.6H140.028V75H134.844ZM145.344 75V52.6H155.04C157.045 52.6 158.773 52.9307 160.224 53.592C161.674 54.232 162.794 55.16 163.584 56.376C164.373 57.592 164.768 59.0427 164.768 60.728C164.768 62.392 164.373 63.832 163.584 65.048C162.794 66.264 161.674 67.2027 160.224 67.864C158.773 68.504 157.045 68.824 155.04 68.824H148.224L150.528 66.488V75H145.344ZM150.528 67.064L148.224 64.6H154.752C156.352 64.6 157.546 64.2587 158.336 63.576C159.125 62.8933 159.52 61.944 159.52 60.728C159.52 59.4907 159.125 58.5307 158.336 57.848C157.546 57.1653 156.352 56.824 154.752 56.824H148.224L150.528 54.36V67.064ZM198.22 75.384C196.492 75.384 194.881 75.1067 193.388 74.552C191.916 73.976 190.636 73.1653 189.548 72.12C188.46 71.0747 187.606 69.848 186.988 68.44C186.39 67.032 186.092 65.4853 186.092 63.8C186.092 62.1147 186.39 60.568 186.988 59.16C187.606 57.752 188.46 56.5253 189.548 55.48C190.657 54.4347 191.948 53.6347 193.42 53.08C194.892 52.504 196.502 52.216 198.252 52.216C200.193 52.216 201.942 52.5573 203.5 53.24C205.078 53.9013 206.401 54.8827 207.468 56.184L204.14 59.256C203.372 58.3813 202.518 57.7307 201.58 57.304C200.641 56.856 199.617 56.632 198.508 56.632C197.462 56.632 196.502 56.8027 195.628 57.144C194.753 57.4853 193.996 57.976 193.356 58.616C192.716 59.256 192.214 60.0133 191.852 60.888C191.51 61.7627 191.34 62.7333 191.34 63.8C191.34 64.8667 191.51 65.8373 191.852 66.712C192.214 67.5867 192.716 68.344 193.356 68.984C193.996 69.624 194.753 70.1147 195.628 70.456C196.502 70.7973 197.462 70.968 198.508 70.968C199.617 70.968 200.641 70.7547 201.58 70.328C202.518 69.88 203.372 69.208 204.14 68.312L207.468 71.384C206.401 72.6853 205.078 73.6773 203.5 74.36C201.942 75.0427 200.182 75.384 198.22 75.384ZM207.618 75L217.602 52.6H222.722L232.738 75H227.298L219.106 55.224H221.154L212.93 75H207.618ZM212.61 70.2L213.986 66.264H225.506L226.914 70.2H212.61Z" fill="white"/>
<path d="M167.025 75V71.64L175.665 63.48C176.347 62.8613 176.849 62.3067 177.169 61.816C177.489 61.3253 177.702 60.8773 177.809 60.472C177.937 60.0667 178.001 59.6933 178.001 59.352C178.001 58.456 177.691 57.7733 177.073 57.304C176.475 56.8133 175.59 56.568 174.417 56.568C173.478 56.568 172.603 56.7493 171.793 57.112C171.003 57.4747 170.331 58.04 169.777 58.808L166.001 56.376C166.854 55.096 168.049 54.0827 169.585 53.336C171.121 52.5893 172.891 52.216 174.897 52.216C176.561 52.216 178.011 52.4933 179.249 53.048C180.507 53.5813 181.478 54.3387 182.161 55.32C182.865 56.3013 183.217 57.4747 183.217 58.84C183.217 59.5653 183.121 60.2907 182.929 61.016C182.758 61.72 182.395 62.4667 181.841 63.256C181.307 64.0453 180.518 64.9307 179.473 65.912L172.305 72.664L171.313 70.776H183.953V75H167.025Z" fill="#F2CC51"/>
<path d="M17.793 99L24.969 82.9H28.649L35.848 99H31.938L26.05 84.786H27.522L21.611 99H17.793ZM21.381 95.55L22.37 92.721H30.65L31.662 95.55H21.381ZM37.5184 99V82.9H40.6004L50.0994 94.492H48.6044V82.9H52.2844V99H49.2254L39.7034 87.408H41.1984V99H37.5184ZM53.9776 99L61.1536 82.9H64.8336L72.0326 99H68.1226L62.2346 84.786H63.7066L57.7956 99H53.9776ZM57.5656 95.55L58.5546 92.721H66.8346L67.8466 95.55H57.5656ZM60.9006 81.589L64.0056 78.277H67.8696L63.7066 81.589H60.9006ZM73.7029 99V82.9H77.4289V95.964H85.5019V99H73.7029ZM87.5838 99V82.9H91.3098V99H87.5838ZM100.421 99.276C99.1327 99.276 97.8983 99.1073 96.7177 98.77C95.537 98.4173 94.5863 97.965 93.8657 97.413L95.1307 94.607C95.8207 95.0977 96.6333 95.504 97.5687 95.826C98.5193 96.1327 99.4777 96.286 100.444 96.286C101.18 96.286 101.77 96.217 102.215 96.079C102.675 95.9257 103.012 95.7187 103.227 95.458C103.441 95.1973 103.549 94.8983 103.549 94.561C103.549 94.1317 103.38 93.7943 103.043 93.549C102.705 93.2883 102.261 93.0813 101.709 92.928C101.157 92.7593 100.543 92.606 99.8687 92.468C99.2093 92.3147 98.5423 92.1307 97.8677 91.916C97.2083 91.7013 96.6027 91.4253 96.0507 91.088C95.4987 90.7507 95.0463 90.306 94.6937 89.754C94.3563 89.202 94.1877 88.4967 94.1877 87.638C94.1877 86.718 94.433 85.8823 94.9237 85.131C95.4297 84.3643 96.181 83.7587 97.1777 83.314C98.1897 82.854 99.4547 82.624 100.973 82.624C101.985 82.624 102.981 82.7467 103.963 82.992C104.944 83.222 105.81 83.5747 106.562 84.05L105.412 86.879C104.66 86.4497 103.909 86.1353 103.158 85.936C102.406 85.7213 101.67 85.614 100.95 85.614C100.229 85.614 99.6387 85.6983 99.1787 85.867C98.7187 86.0357 98.389 86.258 98.1897 86.534C97.9903 86.7947 97.8907 87.1013 97.8907 87.454C97.8907 87.868 98.0593 88.2053 98.3967 88.466C98.734 88.7113 99.1787 88.9107 99.7307 89.064C100.283 89.2173 100.888 89.3707 101.548 89.524C102.222 89.6773 102.889 89.8537 103.549 90.053C104.223 90.2523 104.837 90.5207 105.389 90.858C105.941 91.1953 106.385 91.64 106.723 92.192C107.075 92.744 107.252 93.4417 107.252 94.285C107.252 95.1897 106.999 96.0177 106.493 96.769C105.987 97.5203 105.228 98.126 104.216 98.586C103.219 99.046 101.954 99.276 100.421 99.276ZM113.225 89.386H120.976V92.284H113.225V89.386ZM113.501 96.01H122.264V99H109.798V82.9H121.965V85.89H113.501V96.01ZM131.742 99V82.9H139.056C140.804 82.9 142.345 83.2373 143.679 83.912C145.013 84.5713 146.056 85.499 146.807 86.695C147.558 87.891 147.934 89.3093 147.934 90.95C147.934 92.5753 147.558 93.9937 146.807 95.205C146.056 96.401 145.013 97.3363 143.679 98.011C142.345 98.6703 140.804 99 139.056 99H131.742ZM135.468 95.941H138.872C139.945 95.941 140.873 95.7417 141.655 95.343C142.452 94.929 143.066 94.3463 143.495 93.595C143.94 92.8437 144.162 91.962 144.162 90.95C144.162 89.9227 143.94 89.041 143.495 88.305C143.066 87.5537 142.452 86.9787 141.655 86.58C140.873 86.166 139.945 85.959 138.872 85.959H135.468V95.941ZM158.564 99.276C157.291 99.276 156.111 99.069 155.022 98.655C153.949 98.241 153.013 97.6583 152.216 96.907C151.434 96.1557 150.821 95.274 150.376 94.262C149.947 93.25 149.732 92.146 149.732 90.95C149.732 89.754 149.947 88.65 150.376 87.638C150.821 86.626 151.442 85.7443 152.239 84.993C153.036 84.2417 153.972 83.659 155.045 83.245C156.118 82.831 157.284 82.624 158.541 82.624C159.814 82.624 160.979 82.831 162.037 83.245C163.11 83.659 164.038 84.2417 164.82 84.993C165.617 85.7443 166.238 86.626 166.683 87.638C167.128 88.6347 167.35 89.7387 167.35 90.95C167.35 92.146 167.128 93.2577 166.683 94.285C166.238 95.297 165.617 96.1787 164.82 96.93C164.038 97.666 163.11 98.241 162.037 98.655C160.979 99.069 159.821 99.276 158.564 99.276ZM158.541 96.102C159.262 96.102 159.921 95.9793 160.519 95.734C161.132 95.4887 161.669 95.136 162.129 94.676C162.589 94.216 162.942 93.6717 163.187 93.043C163.448 92.4143 163.578 91.7167 163.578 90.95C163.578 90.1833 163.448 89.4857 163.187 88.857C162.942 88.2283 162.589 87.684 162.129 87.224C161.684 86.764 161.155 86.4113 160.542 86.166C159.929 85.9207 159.262 85.798 158.541 85.798C157.82 85.798 157.153 85.9207 156.54 86.166C155.942 86.4113 155.413 86.764 154.953 87.224C154.493 87.684 154.133 88.2283 153.872 88.857C153.627 89.4857 153.504 90.1833 153.504 90.95C153.504 91.7013 153.627 92.399 153.872 93.043C154.133 93.6717 154.485 94.216 154.93 94.676C155.39 95.136 155.927 95.4887 156.54 95.734C157.153 95.9793 157.82 96.102 158.541 96.102ZM176.664 99V82.9H180.39V99H176.664ZM184.211 99V82.9H191.18C192.621 82.9 193.863 83.1377 194.906 83.613C195.948 84.073 196.753 84.74 197.321 85.614C197.888 86.488 198.172 87.5307 198.172 88.742C198.172 89.938 197.888 90.973 197.321 91.847C196.753 92.721 195.948 93.3957 194.906 93.871C193.863 94.331 192.621 94.561 191.18 94.561H186.281L187.937 92.882V99H184.211ZM187.937 93.296L186.281 91.525H190.973C192.123 91.525 192.981 91.2797 193.549 90.789C194.116 90.2983 194.4 89.616 194.4 88.742C194.4 87.8527 194.116 87.1627 193.549 86.672C192.981 86.1813 192.123 85.936 190.973 85.936H186.281L187.937 84.165V93.296ZM208.761 99.276C207.519 99.276 206.362 99.0767 205.288 98.678C204.23 98.264 203.31 97.6813 202.528 96.93C201.746 96.1787 201.133 95.297 200.688 94.285C200.259 93.273 200.044 92.1613 200.044 90.95C200.044 89.7387 200.259 88.627 200.688 87.615C201.133 86.603 201.746 85.7213 202.528 84.97C203.326 84.2187 204.253 83.6437 205.311 83.245C206.369 82.831 207.527 82.624 208.784 82.624C210.18 82.624 211.437 82.8693 212.556 83.36C213.691 83.8353 214.642 84.5407 215.408 85.476L213.016 87.684C212.464 87.0553 211.851 86.5877 211.176 86.281C210.502 85.959 209.766 85.798 208.968 85.798C208.217 85.798 207.527 85.9207 206.898 86.166C206.27 86.4113 205.725 86.764 205.265 87.224C204.805 87.684 204.445 88.2283 204.184 88.857C203.939 89.4857 203.816 90.1833 203.816 90.95C203.816 91.7167 203.939 92.4143 204.184 93.043C204.445 93.6717 204.805 94.216 205.265 94.676C205.725 95.136 206.27 95.4887 206.898 95.734C207.527 95.9793 208.217 96.102 208.968 96.102C209.766 96.102 210.502 95.9487 211.176 95.642C211.851 95.32 212.464 94.837 213.016 94.193L215.408 96.401C214.642 97.3363 213.691 98.0493 212.556 98.54C211.437 99.0307 210.172 99.276 208.761 99.276ZM215.517 99L222.693 82.9H226.373L233.572 99H229.662L223.774 84.786H225.246L219.335 99H215.517ZM219.105 95.55L220.094 92.721H228.374L229.386 95.55H219.105Z" fill="white"/>
<rect x="250" y="151" width="1670" height="20" fill="url(#paint0_linear_10_74)"/>
</g>
<defs>
<filter id="filter0_f_10_74" x="-690" y="-395" width="2467" height="2467" filterUnits="userSpaceOnUse" color-interpolation-filters="sRGB">
<feFlood flood-opacity="0" result="BackgroundImageFix"/>
<feBlend mode="normal" in="SourceGraphic" in2="BackgroundImageFix" result="shape"/>
<feGaussianBlur stdDeviation="400" result="effect1_foregroundBlur_10_74"/>
</filter>
<filter id="filter1_f_10_74" x="-1393" y="-1361" width="2467" height="2467" filterUnits="userSpaceOnUse" color-interpolation-filters="sRGB">
<feFlood flood-opacity="0" result="BackgroundImageFix"/>
<feBlend mode="normal" in="SourceGraphic" in2="BackgroundImageFix" result="shape"/>
<feGaussianBlur stdDeviation="400" result="effect1_foregroundBlur_10_74"/>
</filter>
<linearGradient id="paint0_linear_10_74" x1="250" y1="161" x2="1920" y2="161" gradientUnits="userSpaceOnUse">
<stop stop-color="#114D3A"/>
<stop offset="1" stop-color="#F2CC51"/>
</linearGradient>
<clipPath id="clip0_10_74">
<rect width="1920" height="890" fill="white"/>
</clipPath>
<clipPath id="clip1_10_74">
<path d="M0 0H186C221.346 0 250 28.6538 250 64V890H0V0Z" fill="white"/>
</clipPath>
</defs>
</svg>
